# xmcd
#
# Track frame offsets:
#	150
#	17651
#	33227
#	54090
#	66381
#	88661
#	104327
#	117492
#	137761
#	160472
#	176666
#	194249
#
# Disc length: 2755 seconds
# Revision: 2
# Processed by: cddbd v1.5.2PL0 Copyright (c) Steve Scherf et al.
# Submitted via: dBpowerAMP V12.0
#
DISCID=aa0ac10c
DTITLE=Dale Ann Bradley - Pocket Full of Keys
DYEAR=2015
DGENRE=Contry
TTITLE0=The Stranger
TTITLE1=Til I Hear it from You
TTITLE2=Pocket Full of Keys
TTITLE3=Ain't it Funny
TTITLE4=Rachel Pack Your Sunday Clothes
TTITLE5=Hard Lesson Road
TTITLE6=Talking to the Moon
TTITLE7=Sweet Hour of Prayer
TTITLE8=Soldiers, Lovers and Dreamers
TTITLE9=Sweetheart of the Pines
TTITLE10=I'm So Afraid of Losing You Again
TTITLE11=I'll Live on Somewhere
EXTD=
EXTT0=
EXTT1=
EXTT2=
EXTT3=
EXTT4=
EXTT5=
EXTT6=
EXTT7=
EXTT8=
EXTT9=
EXTT10=
EXTT11=
PLAYORDER=
